<svg width="28" height="28" viewBox="0 0 28 28" fill="none" xmlns="http://www.w3.org/2000/svg">
<path d="M14.0001 14.7116C14.189 14.7116 14.3702 14.6366 14.5038 14.503C14.6373 14.3694 14.7124 14.1883 14.7124 13.9994C14.7124 13.8105 14.6373 13.6293 14.5038 13.4957C14.3702 13.3621 14.189 13.2871 14.0001 13.2871C13.8112 13.2871 13.6301 13.3621 13.4965 13.4957C13.3629 13.6293 13.2879 13.8105 13.2879 13.9994C13.2879 14.1883 13.3629 14.3694 13.4965 14.503C13.6301 14.6366 13.8112 14.7116 14.0001 14.7116ZM18.9923 14.7116C19.1812 14.7116 19.3624 14.6366 19.4959 14.503C19.6295 14.3694 19.7045 14.1883 19.7045 13.9994C19.7045 13.8105 19.6295 13.6293 19.4959 13.4957C19.3624 13.3621 19.1812 13.2871 18.9923 13.2871C18.8034 13.2871 18.6222 13.3621 18.4887 13.4957C18.3551 13.6293 18.28 13.8105 18.28 13.9994C18.28 14.1883 18.3551 14.3694 18.4887 14.503C18.6222 14.6366 18.8034 14.7116 18.9923 14.7116ZM9.00796 14.7116C9.10149 14.7117 9.19413 14.6933 9.28057 14.6576C9.36701 14.6219 9.44557 14.5695 9.51177 14.5034C9.57796 14.4373 9.63049 14.3588 9.66635 14.2725C9.70222 14.1861 9.72072 14.0935 9.72079 13.9999C9.72087 13.9064 9.70252 13.8138 9.6668 13.7273C9.63108 13.6409 9.57868 13.5623 9.51259 13.4961C9.44651 13.4299 9.36803 13.3774 9.28165 13.3415C9.19526 13.3057 9.10266 13.2872 9.00913 13.2871C8.82022 13.2871 8.63906 13.3621 8.50549 13.4957C8.37192 13.6293 8.29688 13.8105 8.29688 13.9994C8.29688 14.1883 8.37192 14.3694 8.50549 14.503C8.63906 14.6366 8.81906 14.7116 9.00796 14.7116Z" stroke="#999999" stroke-width="1.5" stroke-linecap="round" stroke-linejoin="round"/>
<path d="M26.3329 14.0003C26.3349 15.6196 26.0174 17.2234 25.3985 18.7197C24.7796 20.2161 23.8715 21.5756 22.7262 22.7203C21.5804 23.8664 20.2199 24.7755 18.7225 25.3955C17.2251 26.0155 15.6202 26.3343 13.9995 26.3337C12.2553 26.3375 10.5302 25.9693 8.93954 25.2537L3.78354 26.0163C3.52754 26.0581 3.26521 26.0368 3.01933 25.9542C2.77344 25.8716 2.55145 25.7302 2.37262 25.5423C2.19379 25.3544 2.06354 25.1257 1.99318 24.876C1.92282 24.6263 1.91448 24.3633 1.96888 24.1097L2.68488 18.879C2.0038 17.3432 1.65659 15.6803 1.66621 14.0003C1.66414 12.381 1.98166 10.7773 2.60056 9.28091C3.21946 7.78456 4.12758 6.42506 5.27288 5.28033C6.41873 4.13422 7.77923 3.22518 9.27661 2.60518C10.774 1.98518 12.3789 1.66638 13.9995 1.66699C17.2724 1.66721 20.4112 2.96687 22.7262 5.28033C23.8709 6.42549 24.7787 7.78508 25.3975 9.28133C26.0164 10.7776 26.3342 12.3811 26.3329 14.0003Z" stroke="#999999" stroke-width="1.2" stroke-linecap="round" stroke-linejoin="round"/>
</svg>
