<svg width="24" height="28" viewBox="0 0 24 28" fill="none" xmlns="http://www.w3.org/2000/svg">
<path d="M14.6389 11.2222V20.9444M9.08333 11.2222V20.9444M3.52778 5.66667V22.0556C3.52778 23.6111 3.52778 24.3889 3.83056 24.9833C4.09687 25.506 4.5218 25.9309 5.04444 26.1972C5.6375 26.5 6.41528 26.5 7.96806 26.5H15.7542C17.3069 26.5 18.0833 26.5 18.6764 26.1972C19.2 25.9306 19.625 25.5056 19.8917 24.9833C20.1944 24.3889 20.1944 23.6125 20.1944 22.0597V5.66667M3.52778 5.66667H6.30556M3.52778 5.66667H0.75M20.1944 5.66667H17.4167M20.1944 5.66667H22.9722M6.30556 5.66667H17.4167M6.30556 5.66667C6.30556 4.37222 6.30556 3.725 6.51667 3.21528C6.65611 2.87816 6.86059 2.5718 7.11844 2.31372C7.37629 2.05563 7.68245 1.85086 8.01945 1.71111C8.53056 1.5 9.17778 1.5 10.4722 1.5H13.25C14.5444 1.5 15.1917 1.5 15.7014 1.71111C16.0386 1.85071 16.3451 2.05541 16.6032 2.3135C16.8613 2.5716 17.066 2.87803 17.2056 3.21528C17.4167 3.725 17.4167 4.37222 17.4167 5.66667" stroke="#999999" stroke-width="1.2" stroke-linecap="round" stroke-linejoin="round"/>
</svg>
