<svg width="24" height="21" viewBox="0 0 24 21" fill="none" xmlns="http://www.w3.org/2000/svg">
<path d="M1.16602 7.7501V3.41677C1.16602 2.84214 1.39429 2.29103 1.80062 1.88471C2.20695 1.47838 2.75805 1.2501 3.33268 1.2501H7.55768C7.92004 1.24655 8.27751 1.33394 8.59736 1.50428C8.91721 1.67461 9.18923 1.92245 9.38852 2.2251L10.266 3.5251C10.4633 3.82468 10.7319 4.07058 11.0476 4.24076C11.3634 4.41093 11.7165 4.50004 12.0752 4.5001H20.666C21.2407 4.5001 21.7918 4.72838 22.1981 5.13471C22.6044 5.54103 22.8327 6.09213 22.8327 6.66677V17.5001C22.8327 18.0747 22.6044 18.6258 22.1981 19.0322C21.7918 19.4385 21.2407 19.6668 20.666 19.6668H3.33268C2.75805 19.6668 2.20695 19.4385 1.80062 19.0322C1.39429 18.6258 1.16602 18.0747 1.16602 17.5001V16.4168" stroke="#999999" stroke-width="1.2" stroke-linecap="round" stroke-linejoin="round"/>
<path d="M15 12H7M15 12L12 9M15 12L12 15" stroke="#999999" stroke-width="1.2" stroke-linecap="round" stroke-linejoin="round"/>
</svg>
